{
    "asset" : {
        "generator" : "Khronos glTF Blender I/O v0.9.36",
        "version" : "2.0"
    },
    "scene" : 0,
    "scenes" : [
        {
            "name" : "Scene",
            "nodes" : [
                6
            ]
        }
    ],
    "nodes" : [
        {
            "mesh" : 0,
            "name" : "Sphere.002",
            "rotation" : [
                0,
                0,
                1,
                -1.6292068494294654e-07
            ]
        },
        {
            "name" : "def_head",
            "rotation" : [
                -0.5526105761528015,
                0,
                0,
                0.8334395885467529
            ],
            "translation" : [
                0,
                0.6551913022994995,
                0
            ]
        },
        {
            "mesh" : 1,
            "name" : "Sphere.000",
            "rotation" : [
                0,
                0.7071068286895752,
                0.7071068286895752,
                -1.1520234011186403e-07
            ],
            "translation" : [
                0,
                0.33912812846598184,
                0
            ]
        },
        {
            "children" : [
                1,
                2
            ],
            "name" : "def_body",
            "translation" : [
                0,
                1,
                0
            ]
        },
        {
            "name" : "def_wings",
            "rotation" : [
                0.5,
                -0.4999999701976776,
                -0.4999999701976776,
                0.5
            ],
            "translation" : [
                0,
                1,
                0
            ]
        },
        {
            "children" : [
                3,
                4
            ],
            "name" : "def_tail",
            "rotation" : [
                0.7071068286895752,
                0,
                0,
                0.7071068286895752
            ],
            "translation" : [
                0,
                0,
                -1.3391281366348267
            ]
        },
        {
            "children" : [
                0,
                5
            ],
            "name" : "Armature",
            "translation" : [
                0.14392274618148804,
                0,
                1.9726617336273193
            ]
        }
    ],
    "meshes" : [
        {
            "name" : "Sphere.002",
            "primitives" : [
                {
                    "attributes" : {
                        "POSITION" : 0,
                        "NORMAL" : 1,
                        "TEXCOORD_0" : 2
                    },
                    "indices" : 3
                }
            ]
        },
        {
            "name" : "Sphere.003",
            "primitives" : [
                {
                    "attributes" : {
                        "POSITION" : 4,
                        "NORMAL" : 5,
                        "TEXCOORD_0" : 6
                    },
                    "indices" : 7
                }
            ]
        }
    ],
    "accessors" : [
        {
            "bufferView" : 0,
            "componentType" : 5126,
            "count" : 225,
            "max" : [
                2.565293312072754,
                0.26400795578956604,
                1.8375003337860107
            ],
            "min" : [
                -0.0006638122722506523,
                -0.61141437292099,
                -1.6273853778839111
            ],
            "type" : "VEC3"
        },
        {
            "bufferView" : 1,
            "componentType" : 5126,
            "count" : 225,
            "type" : "VEC3"
        },
        {
            "bufferView" : 2,
            "componentType" : 5126,
            "count" : 225,
            "type" : "VEC2"
        },
        {
            "bufferView" : 3,
            "componentType" : 5123,
            "count" : 732,
            "type" : "SCALAR"
        },
        {
            "bufferView" : 4,
            "componentType" : 5126,
            "count" : 27,
            "max" : [
                0.3575862944126129,
                -0.07475125789642334,
                0.2617728114128113
            ],
            "min" : [
                0.11347344517707825,
                -0.5660456418991089,
                0.18550635874271393
            ],
            "type" : "VEC3"
        },
        {
            "bufferView" : 5,
            "componentType" : 5126,
            "count" : 27,
            "type" : "VEC3"
        },
        {
            "bufferView" : 6,
            "componentType" : 5126,
            "count" : 27,
            "type" : "VEC2"
        },
        {
            "bufferView" : 7,
            "componentType" : 5123,
            "count" : 96,
            "type" : "SCALAR"
        }
    ],
    "bufferViews" : [
        {
            "buffer" : 0,
            "byteLength" : 2700,
            "byteOffset" : 0
        },
        {
            "buffer" : 0,
            "byteLength" : 2700,
            "byteOffset" : 2700
        },
        {
            "buffer" : 0,
            "byteLength" : 1800,
            "byteOffset" : 5400
        },
        {
            "buffer" : 0,
            "byteLength" : 1464,
            "byteOffset" : 7200
        },
        {
            "buffer" : 0,
            "byteLength" : 324,
            "byteOffset" : 8664
        },
        {
            "buffer" : 0,
            "byteLength" : 324,
            "byteOffset" : 8988
        },
        {
            "buffer" : 0,
            "byteLength" : 216,
            "byteOffset" : 9312
        },
        {
            "buffer" : 0,
            "byteLength" : 192,
            "byteOffset" : 9528
        }
    ],
    "buffers" : [
        {
            "byteLength" : 9720,
            "uri" : "data:application/octet-stream;base64,"
        }
    ]
}
