{
    "asset" : {
        "generator" : "Khronos glTF Blender I/O v0.9.36",
        "version" : "2.0"
    },
    "scene" : 0,
    "scenes" : [
        {
            "name" : "Scene",
            "nodes" : [
                0,
                1,
                2,
                3,
                10
            ]
        }
    ],
    "nodes" : [
        {
            "name" : "Light",
            "rotation" : [
                0.16907575726509094,
                0.7558803558349609,
                -0.27217137813568115,
                0.570947527885437
            ],
            "translation" : [
                4.076245307922363,
                5.903861999511719,
                -1.0054539442062378
            ]
        },
        {
            "name" : "Camera",
            "rotation" : [
                0.483536034822464,
                0.33687159419059753,
                -0.20870360732078552,
                0.7804827094078064
            ],
            "translation" : [
                7.358891487121582,
                4.958309173583984,
                6.925790786743164
            ]
        },
        {
            "name" : "Empty",
            "rotation" : [
                0.7071068286895752,
                0,
                0,
                0.7071067094802856
            ]
        },
        {
            "name" : "Empty.001",
            "rotation" : [
                0.7071068286895752,
                0,
                0,
                0.7071067094802856
            ]
        },
        {
            "name" : "def_head",
            "rotation" : [
                -0.5526105761528015,
                0,
                0,
                0.8334395885467529
            ],
            "translation" : [
                0,
                0.6551913022994995,
                0
            ]
        },
        {
            "mesh" : 1,
            "name" : "Sphere.000",
            "rotation" : [
                0,
                0,
                1,
                -1.6292068494294654e-07
            ],
            "translation" : [
                0,
                0.33912812846598184,
                0
            ]
        },
        {
            "children" : [
                4,
                5
            ],
            "name" : "def_body",
            "translation" : [
                0,
                1,
                0
            ]
        },
        {
            "name" : "def_wings",
            "rotation" : [
                0.5,
                -0.4999999701976776,
                -0.4999999701976776,
                0.5
            ],
            "translation" : [
                0,
                1,
                0
            ]
        },
        {
            "children" : [
                6,
                7
            ],
            "name" : "def_tail",
            "translation" : [
                0,
                -1.3391281366348267,
                0
            ]
        },
        {
            "mesh" : 0,
            "name" : "Sphere.002",
            "rotation" : [
                0,
                1,
                0,
                -1.6292068494294654e-07
            ],
            "skin" : 0
        },
        {
            "children" : [
                9,
                8
            ],
            "name" : "Armature",
            "translation" : [
                0.14392274618148804,
                1.9726617336273193,
                0
            ]
        }
    ],
    "animations" : [
        {
            "channels" : [
                {
                    "sampler" : 0,
                    "target" : {
                        "node" : 8,
                        "path" : "translation"
                    }
                },
                {
                    "sampler" : 1,
                    "target" : {
                        "node" : 8,
                        "path" : "rotation"
                    }
                },
                {
                    "sampler" : 2,
                    "target" : {
                        "node" : 8,
                        "path" : "scale"
                    }
                },
                {
                    "sampler" : 3,
                    "target" : {
                        "node" : 6,
                        "path" : "translation"
                    }
                },
                {
                    "sampler" : 4,
                    "target" : {
                        "node" : 6,
                        "path" : "rotation"
                    }
                },
                {
                    "sampler" : 5,
                    "target" : {
                        "node" : 6,
                        "path" : "scale"
                    }
                },
                {
                    "sampler" : 6,
                    "target" : {
                        "node" : 4,
                        "path" : "translation"
                    }
                },
                {
                    "sampler" : 7,
                    "target" : {
                        "node" : 4,
                        "path" : "rotation"
                    }
                },
                {
                    "sampler" : 8,
                    "target" : {
                        "node" : 4,
                        "path" : "scale"
                    }
                },
                {
                    "sampler" : 9,
                    "target" : {
                        "node" : 7,
                        "path" : "translation"
                    }
                },
                {
                    "sampler" : 10,
                    "target" : {
                        "node" : 7,
                        "path" : "rotation"
                    }
                },
                {
                    "sampler" : 11,
                    "target" : {
                        "node" : 7,
                        "path" : "scale"
                    }
                }
            ],
            "name" : "ArmatureAction",
            "samplers" : [
                {
                    "input" : 11,
                    "interpolation" : "CUBICSPLINE",
                    "output" : 12
                },
                {
                    "input" : 11,
                    "interpolation" : "CUBICSPLINE",
                    "output" : 13
                },
                {
                    "input" : 11,
                    "interpolation" : "CUBICSPLINE",
                    "output" : 14
                },
                {
                    "input" : 11,
                    "interpolation" : "CUBICSPLINE",
                    "output" : 15
                },
                {
                    "input" : 11,
                    "interpolation" : "CUBICSPLINE",
                    "output" : 16
                },
                {
                    "input" : 11,
                    "interpolation" : "CUBICSPLINE",
                    "output" : 17
                },
                {
                    "input" : 11,
                    "interpolation" : "CUBICSPLINE",
                    "output" : 18
                },
                {
                    "input" : 11,
                    "interpolation" : "CUBICSPLINE",
                    "output" : 19
                },
                {
                    "input" : 11,
                    "interpolation" : "CUBICSPLINE",
                    "output" : 20
                },
                {
                    "input" : 21,
                    "interpolation" : "CUBICSPLINE",
                    "output" : 22
                },
                {
                    "input" : 21,
                    "interpolation" : "CUBICSPLINE",
                    "output" : 23
                },
                {
                    "input" : 21,
                    "interpolation" : "CUBICSPLINE",
                    "output" : 24
                }
            ]
        }
    ],
    "materials" : [
        {
            "doubleSided" : true,
            "name" : "Material.001",
            "pbrMetallicRoughness" : {
                "baseColorTexture" : {
                    "index" : 0,
                    "texCoord" : 0
                },
                "metallicFactor" : 0,
                "roughnessFactor" : 0.5
            }
        }
    ],
    "meshes" : [
        {
            "name" : "Sphere.002",
            "primitives" : [
                {
                    "attributes" : {
                        "POSITION" : 0,
                        "NORMAL" : 1,
                        "TEXCOORD_0" : 2,
                        "JOINTS_0" : 3,
                        "WEIGHTS_0" : 4
                    },
                    "indices" : 5,
                    "material" : 0
                }
            ]
        },
        {
            "name" : "Sphere.003",
            "primitives" : [
                {
                    "attributes" : {
                        "POSITION" : 7,
                        "NORMAL" : 8,
                        "TEXCOORD_0" : 9
                    },
                    "indices" : 10,
                    "material" : 0
                }
            ]
        }
    ],
    "textures" : [
        {
            "source" : 0
        }
    ],
    "images" : [
        {
            "bufferView" : 6,
            "mimeType" : "image/png",
            "name" : "Image_butterfly"
        }
    ],
    "skins" : [
        {
            "inverseBindMatrices" : 6,
            "joints" : [
                8,
                6,
                4,
                7
            ],
            "name" : "Armature"
        }
    ],
    "accessors" : [
        {
            "bufferView" : 0,
            "componentType" : 5126,
            "count" : 225,
            "max" : [
                2.565293312072754,
                1.8375003337860107,
                0.61141437292099
            ],
            "min" : [
                -0.0006638122722506523,
                -1.6273853778839111,
                -0.26400795578956604
            ],
            "type" : "VEC3"
        },
        {
            "bufferView" : 1,
            "componentType" : 5126,
            "count" : 225,
            "type" : "VEC3"
        },
        {
            "bufferView" : 2,
            "componentType" : 5126,
            "count" : 225,
            "type" : "VEC2"
        },
        {
            "bufferView" : 3,
            "componentType" : 5123,
            "count" : 225,
            "type" : "VEC4"
        },
        {
            "bufferView" : 4,
            "componentType" : 5126,
            "count" : 225,
            "type" : "VEC4"
        },
        {
            "bufferView" : 5,
            "componentType" : 5123,
            "count" : 732,
            "type" : "SCALAR"
        },
        {
            "bufferView" : 7,
            "componentType" : 5126,
            "count" : 4,
            "type" : "MAT4"
        },
        {
            "bufferView" : 8,
            "componentType" : 5126,
            "count" : 27,
            "max" : [
                0.3575862944126129,
                0.2617728114128113,
                0.5660456418991089
            ],
            "min" : [
                0.11347344517707825,
                0.18550635874271393,
                0.07475125789642334
            ],
            "type" : "VEC3"
        },
        {
            "bufferView" : 9,
            "componentType" : 5126,
            "count" : 27,
            "type" : "VEC3"
        },
        {
            "bufferView" : 10,
            "componentType" : 5126,
            "count" : 27,
            "type" : "VEC2"
        },
        {
            "bufferView" : 11,
            "componentType" : 5123,
            "count" : 96,
            "type" : "SCALAR"
        },
        {
            "bufferView" : 12,
            "componentType" : 5126,
            "count" : 4,
            "max" : [
                2.0416666666666665
            ],
            "min" : [
                0.041666666666666664
            ],
            "type" : "SCALAR"
        },
        {
            "bufferView" : 13,
            "componentType" : 5126,
            "count" : 12,
            "type" : "VEC3"
        },
        {
            "bufferView" : 14,
            "componentType" : 5126,
            "count" : 12,
            "type" : "VEC4"
        },
        {
            "bufferView" : 15,
            "componentType" : 5126,
            "count" : 12,
            "type" : "VEC3"
        },
        {
            "bufferView" : 16,
            "componentType" : 5126,
            "count" : 12,
            "type" : "VEC3"
        },
        {
            "bufferView" : 17,
            "componentType" : 5126,
            "count" : 12,
            "type" : "VEC4"
        },
        {
            "bufferView" : 18,
            "componentType" : 5126,
            "count" : 12,
            "type" : "VEC3"
        },
        {
            "bufferView" : 19,
            "componentType" : 5126,
            "count" : 12,
            "type" : "VEC3"
        },
        {
            "bufferView" : 20,
            "componentType" : 5126,
            "count" : 12,
            "type" : "VEC4"
        },
        {
            "bufferView" : 21,
            "componentType" : 5126,
            "count" : 12,
            "type" : "VEC3"
        },
        {
            "bufferView" : 22,
            "componentType" : 5126,
            "count" : 7,
            "max" : [
                2.0416666666666665
            ],
            "min" : [
                0.041666666666666664
            ],
            "type" : "SCALAR"
        },
        {
            "bufferView" : 23,
            "componentType" : 5126,
            "count" : 21,
            "type" : "VEC3"
        },
        {
            "bufferView" : 24,
            "componentType" : 5126,
            "count" : 21,
            "type" : "VEC4"
        },
        {
            "bufferView" : 25,
            "componentType" : 5126,
            "count" : 21,
            "type" : "VEC3"
        }
    ],
    "bufferViews" : [
        {
            "buffer" : 0,
            "byteLength" : 2700,
            "byteOffset" : 0
        },
        {
            "buffer" : 0,
            "byteLength" : 2700,
            "byteOffset" : 2700
        },
        {
            "buffer" : 0,
            "byteLength" : 1800,
            "byteOffset" : 5400
        },
        {
            "buffer" : 0,
            "byteLength" : 1800,
            "byteOffset" : 7200
        },
        {
            "buffer" : 0,
            "byteLength" : 3600,
            "byteOffset" : 9000
        },
        {
            "buffer" : 0,
            "byteLength" : 1464,
            "byteOffset" : 12600
        },
        {
            "buffer" : 0,
            "byteLength" : 409426,
            "byteOffset" : 14064
        },
        {
            "buffer" : 0,
            "byteLength" : 256,
            "byteOffset" : 423492
        },
        {
            "buffer" : 0,
            "byteLength" : 324,
            "byteOffset" : 423748
        },
        {
            "buffer" : 0,
            "byteLength" : 324,
            "byteOffset" : 424072
        },
        {
            "buffer" : 0,
            "byteLength" : 216,
            "byteOffset" : 424396
        },
        {
            "buffer" : 0,
            "byteLength" : 192,
            "byteOffset" : 424612
        },
        {
            "buffer" : 0,
            "byteLength" : 16,
            "byteOffset" : 424804
        },
        {
            "buffer" : 0,
            "byteLength" : 144,
            "byteOffset" : 424820
        },
        {
            "buffer" : 0,
            "byteLength" : 192,
            "byteOffset" : 424964
        },
        {
            "buffer" : 0,
            "byteLength" : 144,
            "byteOffset" : 425156
        },
        {
            "buffer" : 0,
            "byteLength" : 144,
            "byteOffset" : 425300
        },
        {
            "buffer" : 0,
            "byteLength" : 192,
            "byteOffset" : 425444
        },
        {
            "buffer" : 0,
            "byteLength" : 144,
            "byteOffset" : 425636
        },
        {
            "buffer" : 0,
            "byteLength" : 144,
            "byteOffset" : 425780
        },
        {
            "buffer" : 0,
            "byteLength" : 192,
            "byteOffset" : 425924
        },
        {
            "buffer" : 0,
            "byteLength" : 144,
            "byteOffset" : 426116
        },
        {
            "buffer" : 0,
            "byteLength" : 28,
            "byteOffset" : 426260
        },
        {
            "buffer" : 0,
            "byteLength" : 252,
            "byteOffset" : 426288
        },
        {
            "buffer" : 0,
            "byteLength" : 336,
            "byteOffset" : 426540
        },
        {
            "buffer" : 0,
            "byteLength" : 252,
            "byteOffset" : 426876
        }
    ],
    "buffers" : [
        {
            "byteLength" : 427128,
            "uri" : "data:application/octet-stream;base64,"
        }
    ]
}
